<svg width="20" height="20" viewBox="0 0 20 20" fill="none" xmlns="http://www.w3.org/2000/svg">
<g clip-path="url(#clip0_10485_101569)">
<path d="M0.0709996 8.68246C0.0956315 9.55985 0.00384755 10.4501 0.118797 11.3149C0.252515 11.8937 1.35832 11.6181 1.79936 11.5911C3.57844 11.3152 5.1373 10.0396 5.75544 8.35489C6.31641 6.79255 6.00911 5.10759 6.05925 3.47394C6.06159 2.91385 6.05513 2.36461 6.06717 1.80247C6.0361 1.22332 6.31261 0.18584 5.49885 0.0846719C3.79485 -0.05579 1.83073 0.0632653 0.709091 1.51216C-0.0410182 2.41211 0.0188028 3.60648 0.0317053 4.71494V4.72078L0.0707062 8.68277L0.0709996 8.68246Z" fill="#3F2D6F"/>
<path d="M0.0569979 13.4911C0.0608103 14.8338 0.168429 16.1279 0.945517 17.2759C1.25869 17.763 1.63873 18.226 2.09502 18.5838C2.5903 18.9667 3.18147 19.2647 3.75534 19.5095C4.43065 19.789 5.15734 19.9133 5.87955 19.9506C6.63614 19.994 7.45132 20.001 8.23105 19.974C9.55884 19.9459 10.7283 19.7218 11.6614 18.7152C12.159 18.1779 12.5678 17.5513 12.6822 16.8132C12.8443 15.8745 12.6144 14.9822 12.0807 14.1981C11.5834 13.4717 10.7896 12.9433 9.96176 12.6536C9.69021 12.5636 9.33012 12.4964 9.06795 12.4785C8.09765 12.4656 4.33038 12.4797 1.95895 12.4738C1.53405 12.4736 1.13905 12.4738 0.727636 12.4738C0.595389 12.4812 0.457858 12.4542 0.346132 12.5014C0.0399902 12.6724 0.055532 13.1735 0.0572912 13.4858V13.4917L0.0569979 13.4911Z" fill="#FF5959"/>
<path d="M19.9293 11.3471C19.9046 10.4697 19.9964 9.57944 19.8815 8.71466C19.7477 8.13581 18.6419 8.41147 18.2009 8.43842C16.4219 8.71435 14.863 9.98997 14.2448 11.6746C13.6838 13.237 13.9912 14.922 13.941 16.5556C13.9387 17.1157 13.9451 17.6649 13.9331 18.2271C13.9642 18.8062 13.6877 19.8437 14.5014 19.9449C16.2051 20.0856 18.1696 19.9666 19.2912 18.5174C20.041 17.6174 19.9812 16.4231 19.9683 15.3149V15.309L19.9293 11.3471Z" fill="#EFBDFA"/>
<path d="M19.9431 6.53863C19.9393 5.19588 19.8317 3.90183 19.0546 2.7538C18.7414 2.26673 18.3614 1.8037 17.9051 1.44595C17.4098 1.06298 16.8186 0.765045 16.2448 0.520191C15.5694 0.240733 14.8428 0.116399 14.1205 0.0791578C13.364 0.0357585 12.5488 0.0287208 11.769 0.055699C10.4412 0.0838499 9.27181 0.307885 8.33871 1.31458C7.8411 1.85179 7.4323 2.47845 7.31796 3.21653C7.15579 4.15519 7.3857 5.04752 7.91938 5.83163C8.41672 6.55801 9.21053 7.08641 10.0383 7.37615C10.3099 7.46615 10.67 7.53332 10.9321 7.55119C11.9025 7.56411 15.6697 7.55004 18.0411 7.55588C18.4661 7.55619 18.8611 7.55588 19.2725 7.55588C19.4047 7.54858 19.5423 7.57553 19.654 7.52832C19.9601 7.35739 19.9446 6.85624 19.9428 6.54394V6.53805L19.9431 6.53863Z" fill="#3F2D6F"/>
</g>
<defs>
<clipPath id="clip0_10485_101569">
<rect width="20" height="20" fill="white"/>
</clipPath>
</defs>
</svg>
